<?xml version="1.0" encoding="utf-8"?>
<!-- Generator: Adobe Illustrator 16.0.0, SVG Export Plug-In . SVG Version: 6.00 Build 0)  -->
<!DOCTYPE svg PUBLIC "-//W3C//DTD SVG 1.1//EN" "http://www.w3.org/Graphics/SVG/1.1/DTD/svg11.dtd">
<svg version="1.1" id="Layer_1" xmlns="http://www.w3.org/2000/svg" xmlns:xlink="http://www.w3.org/1999/xlink" x="0px" y="0px"
	 width="2000px" height="1000px" viewBox="0 0 2000 1000" enable-background="new 0 0 2000 1000" xml:space="preserve">
<g>
	<path fill-rule="evenodd" clip-rule="evenodd" fill="none" d="M30.882-46.33c0,0,.7386-.5308,2.016-.504s2.664,1.44,26.64,1.44
		s-11.767,13.599-18.72,23.04c-6.954,9.441-19.917,15.744-35.28,15.84c-15.364,0.096-24.222-4.423-23.04-7.92
		c1.182-3.498,10.797-8.577,79.2-6.48c5.229,0.621,10.386-0.092,12.24-1.44c1.854-1.349-4.784-0.848-5.76,1.44
		c-2.191,7.753,19.079-0.201,28.08-0.72"/>
	<path fill-rule="evenodd" clip-rule="evenodd" fill="none" d="M409.62-460.42c0,0-18.083,13.598-23.04,27.36
		s12.919-7.125,12.24-10.08c-0.679-2.956-3.351,1.19,2.88,0.72c8.933-0.674,8.64,0,8.64,0"/>
	<path fill-rule="evenodd" clip-rule="evenodd" fill="none" d="M429.78-461.14c0,0-18.776,14.364-22.32,27.36
		c-3.543,12.996,13.146-9.699,11.52-10.08c-1.626-0.382-4.137,0.565,5.04,0.72c9.177,0.155,7.92,0.72,7.92,0.72
		s-1.397,7.093,7.2-3.6c2.529-1.929-3.344,2.894,7.2,3.6c3.708-1.349,13.889,0.473,15.12,0c1.231-0.474,1.941-3.418-2.88-1.44
		c-4.822,1.978-0.513,6.248,5.76,5.04c6.272-1.208,19.44-4.32,19.44-4.32s-3.813,7.767,12.24,0.72
		c7.963-1.147-4.069,9.524-6.48,11.52c-10.332,11.097-9.563-9.499,23.76-12.24"/>
</g>
</svg>
